PathFileType	4	(X/Y/Z)	F:/Ayumi_testdata/Ayumi_25_09_2024/new_static/static_00.trc																																																																																																																																																																																																				
DataRate	CameraRate	NumFrames	NumMarkers	Units	OrigDataRate	OrigDataStartFrame	OrigNumFrames																																																																																																																																																																																																
200	200	4	66	mm	200	37	295																																																																																																																																																																																																
Frame#	Time	LASI			RASI			RSACR			LSACR			USACR			LBAR			RBAR			RHEE			RMT1			RMT5			RMT2			LHEE			LMT1			LMT5			LMT2			LMMAL			LMFC			LLFC			LLMAL			LTIB4			LTIB2			LTIB3			LTIB1			RMMAL			RMFC			RLFC			RLMAL			RTIB1			RTIB2			RTIB3			RTHI1			RTHI4			RTHI3			RTHI2			LTHI1			LTHI4			LTHI3			LTHI2			FHD			LBHD			RBHD			C7			T10			CLAV			LSHO			RSHO			LRAD			LUL			LRFIN			RRAD			RUL			RUFIN			RLEP			RMEP			LLEP			LMEP			LDUPA			LMUPA			LUUPA			RDUPA			RUUPA			RMUPA			LKJC			RKJC			LAJC			RAJC		
		X1	Y1	Z1	X2	Y2	Z2	X3	Y3	Z3	X4	Y4	Z4	X5	Y5	Z5	X6	Y6	Z6	X7	Y7	Z7	X8	Y8	Z8	X9	Y9	Z9	X10	Y10	Z10	X11	Y11	Z11	X12	Y12	Z12	X13	Y13	Z13	X14	Y14	Z14	X15	Y15	Z15	X16	Y16	Z16	X17	Y17	Z17	X18	Y18	Z18	X19	Y19	Z19	X20	Y20	Z20	X21	Y21	Z21	X22	Y22	Z22	X23	Y23	Z23	X24	Y24	Z24	X25	Y25	Z25	X26	Y26	Z26	X27	Y27	Z27	X28	Y28	Z28	X29	Y29	Z29	X30	Y30	Z30	X31	Y31	Z31	X32	Y32	Z32	X33	Y33	Z33	X34	Y34	Z34	X35	Y35	Z35	X36	Y36	Z36	X37	Y37	Z37	X38	Y38	Z38	X39	Y39	Z39	X40	Y40	Z40	X41	Y41	Z41	X42	Y42	Z42	X43	Y43	Z43	X44	Y44	Z44	X45	Y45	Z45	X46	Y46	Z46	X47	Y47	Z47	X48	Y48	Z48	X49	Y49	Z49	X50	Y50	Z50	X51	Y51	Z51	X52	Y52	Z52	X53	Y53	Z53	X54	Y54	Z54	X55	Y55	Z55	X56	Y56	Z56	X57	Y57	Z57	X58	Y58	Z58	X59	Y59	Z59	X60	Y60	Z60	X61	Y61	Z61	X62	Y62	Z62	X63	Y63	Z63	X64	Y64	Z64	X65	Y65	Z65	X66	Y66	Z66
																																																																																																																																																																																																							
37	0.18	134.6491699	762.3181152	918.1463623	130.0755005	984.6013184	918.6594238	309.9493713	912.6434937	950.4391479	309.2156372	852.7468262	953.6871338	298.3019714	882.5958252	966.8130493	1270.800049	-346.5031738	26.32111931	1226.409302	1876.951538	26.30409813	323.0599976	1019.657898	39.8125267	128.1504059	1043.321899	43.44192886	165.0629425	1113.662476	34.81148148	140.1756744	1079.969849	42.68904114	326.2682495	745.1303711	45.80298996	134.3886414	736.4559326	46.33446884	170.0120239	662.7838745	33.38171768	143.1743469	698.0352783	45.91688919	276.7026978	778.6670532	72.94312286	233.4578552	829.1200562	456.9279175	219.9967346	721.4433594	454.0433044	278.8191528	700.9472046	69.13316345	290.6069946	691.5283813	209.6097412	314.3168945	691.5272827	270.8748779	263.7928162	684.4790039	268.1868591	301.7335815	687.5443115	314.2076416	275.1867371	994.1177979	68.34931183	235.8841705	935.4342651	446.5945435	221.1131744	1041.329712	461.400238	284.6979065	1068.613525	72.22663879	257.4283752	1082.749512	319.3221436	307.8816528	1077.243164	313.9998169	276.8372803	1081.413696	256.1704407	242.3882446	1060.131348	783.9695435	243.2740936	1064.848877	635.1357422	192.0009766	1066.701416	637.1349487	219.7108307	1070.213989	697.2589722	239.5828552	698.9683228	779.0327759	237.4227753	695.4257202	646.6436157	186.8271637	693.133667	637.6137085	201.3438416	689.4239502	701.3273315	130.620575	775.2338867	1593.133789	241.3921509	786.2510986	1575.980103	252.9313049	909.7336426	1571.433472	262.926178	857.6729126	1391.470337	286.2934265	877.687439	1007.770508	140.3431396	872.687439	1328.739136	244.1410828	724.7148438	1380.915161	236.3832245	986.6733398	1397.152222	163.8981171	222.56633	1357.419067	204.5168762	222.0753021	1353.071777	150.4085083	130.6587067	1336.880859	240.9651642	1500.542114	1389.57312	287.8619995	1499.665649	1383.480835	235.243103	1590.703125	1391.842163	293.2093506	1271.20874	1330.287354	255.0163269	1271.746216	1296.660034	220.0715179	453.8538208	1299.948975	179.2128906	466.7236938	1277.534912	236.3144073	505.7744141	1353.774536	200.4482269	536.3591309	1371.368896	237.5998993	584.9540405	1362.37146	266.0339966	1205.647095	1382.736206	256.7182007	1143.935791	1384.400269	215.8012695	1212.215332	1385.66626	226.7272949	775.2817383	455.4855957	228.4986725	988.381958	453.9973755	277.7609253	739.8071289	71.03814697	279.9423218	1031.365723	70.28797913
38	0.185	134.6344757	762.3220825	918.1512451	130.0567474	984.6005249	918.6552734	309.9306641	912.6511841	950.4393921	309.1943665	852.7565918	953.6852417	298.2746277	882.6071777	966.8078613	1270.792969	-346.4956665	26.3240509	1226.431641	1876.971191	26.29346848	323.0506897	1019.649353	39.82020569	128.1451721	1043.317993	43.44781494	165.0609894	1113.668091	34.81752777	140.1748047	1079.965088	42.68555832	326.268219	745.1469727	45.80358124	134.3901215	736.456604	46.33842468	169.9938202	662.7808838	33.40154648	143.1756592	698.0352783	45.91778183	276.7150879	778.6569824	72.94865417	233.4455719	829.1263428	456.9273376	219.9943085	721.4506226	454.0445557	278.8155518	700.9468994	69.13187408	290.6005554	691.5296021	209.618576	314.2567749	691.3466797	271.1990662	263.7835999	684.4888916	268.1842957	301.7376099	687.5496826	314.2139282	275.1903687	994.112915	68.34991455	235.8734436	935.4404907	446.5908203	221.1058502	1041.327637	461.3970032	284.6964417	1068.625732	72.22925568	257.4291077	1082.758545	319.3293457	307.8821106	1077.236694	314.0047607	276.8375244	1081.408447	256.1818542	242.367218	1060.139648	783.9697266	243.2717285	1064.855103	635.1552124	191.9946747	1066.705811	637.1223755	219.8125458	1070.151001	697.1264038	239.5867767	698.9720459	779.0405884	237.4098053	695.4319458	646.6628418	186.7924652	693.1413574	637.6022949	201.3334808	689.4338989	701.3203125	130.5903625	775.2219238	1593.103516	241.3390656	786.241272	1575.986816	252.8846588	909.7236938	1571.445557	262.9141541	857.6674805	1391.47522	286.2718506	877.7001953	1007.770081	140.3238831	872.68573	1328.743164	244.1266327	724.7064819	1380.941284	236.3620758	986.6662598	1397.153442	163.8811646	222.5057373	1357.593994	204.4908142	222.0841064	1353.088501	150.3794403	130.6536713	1336.924438	240.9177704	1500.543091	1389.615967	287.827179	1499.650146	1383.535645	235.1993103	1590.702637	1391.892822	293.1840515	1271.211914	1330.317871	254.9971008	1271.750732	1296.688232	220.0690613	453.8557434	1299.95752	179.2014313	466.7299194	1277.549194	236.3029785	505.7668457	1353.782471	200.4433289	536.3610229	1371.369507	237.5778961	584.9478149	1362.405273	266.0064697	1205.65564	1382.751953	256.6965332	1143.931885	1384.408691	215.8111877	1212.15271	1385.592529	226.7199402	775.2884521	455.4859619	228.4896545	988.3840332	453.9938965	277.7653198	739.8019409	71.04026794	279.9434204	1031.369385	70.2895813
39	0.19	134.6092072	762.3260498	918.1542358	130.0475006	984.6083374	918.651123	309.9063721	912.6480103	950.4478149	309.1768799	852.7553711	953.6916504	298.2450867	882.6082764	966.8093872	1270.797363	-346.5071106	26.33419037	1226.424927	1876.966309	26.29986191	323.0574036	1019.662659	39.8179245	128.1520386	1043.330078	43.45920181	165.0585022	1113.675781	34.82122421	140.1744537	1079.967773	42.69048309	326.2684326	745.1425171	45.80767441	134.3929443	736.4552612	46.34485245	169.9866028	662.7781982	33.39841843	143.1767426	698.0349121	45.92168808	276.7211609	778.657959	72.95409393	233.4252777	829.1382446	456.9320374	219.984024	721.4594116	454.0543823	278.8127441	700.951355	69.14177704	290.607605	691.5289307	209.6230164	314.25177	691.3464355	271.1916504	263.7955627	684.4856567	268.2007446	301.9245911	687.3548584	314.2940063	275.1870422	994.1022339	68.35601807	235.8679962	935.4366455	446.5939331	221.1065369	1041.3302	461.3916321	284.6996765	1068.619141	72.23176575	257.4307251	1082.745483	319.3326111	307.87323	1077.234619	314.0149231	276.8570251	1081.409912	256.1711731	242.3533478	1060.148682	783.9760132	243.283844	1064.836304	635.1473999	191.973175	1066.682861	637.1166382	219.8179932	1070.151489	697.1282959	239.5601654	698.977417	779.038208	237.4003906	695.4254761	646.6611938	186.7772369	693.1329956	637.6002808	201.3102875	689.4266357	701.322876	130.5312347	775.2171021	1593.101807	241.2629242	786.2345581	1575.984863	252.8328094	909.7180786	1571.463379	262.8925781	857.675415	1391.480957	286.2451477	877.7133179	1007.771057	140.3237915	872.6973267	1328.748291	244.1234283	724.7091064	1380.954468	236.3468323	986.6611938	1397.151123	163.858078	222.5243225	1357.630371	204.4618073	222.0982819	1353.117554	150.3636169	130.6717529	1336.968628	240.8700714	1500.537231	1389.66626	287.7824402	1499.641602	1383.582642	235.1649323	1590.700439	1391.945923	293.1659546	1271.197021	1330.339111	254.9654694	1271.765015	1296.716675	220.0520477	453.8618774	1299.973145	179.187439	466.7267456	1277.565552	236.2941895	505.7706299	1353.780884	200.4411316	536.3704834	1371.376709	237.5666351	584.9523315	1362.416504	265.9807129	1205.634033	1382.772339	256.6708069	1143.916748	1384.418701	215.7779846	1212.149292	1385.612427	226.7046509	775.2988281	455.4932251	228.4872742	988.3834229	453.9927979	277.7669678	739.8046875	71.04793549	279.9433594	1031.360718	70.29389191
40	0.195	134.5873566	762.3300171	918.1479492	130.0245209	984.6154175	918.6528931	309.8813782	912.6556396	950.4386597	309.146759	852.7557373	953.6884766	298.231842	882.6071167	966.8168945	1270.802368	-346.4915466	26.33607292	1226.434692	1876.972046	26.29257011	323.0517883	1019.670349	39.82024384	128.1490631	1043.327881	43.45960617	165.0477448	1113.670044	34.81754684	140.1796722	1079.962891	42.68580246	326.2742615	745.1523438	45.80135727	134.3863525	736.4547729	46.34281921	169.9740143	662.776123	33.41707993	143.1708832	698.02948	45.92208099	276.7153931	778.6542358	72.95444489	233.4134979	829.1403809	456.9378662	219.9631958	721.4644775	454.0440979	278.8249512	700.9507446	69.14484406	290.6008301	691.5272827	209.6233521	314.2917175	691.5390625	270.9425049	263.7826843	684.4939575	268.1970215	301.917572	687.3654175	314.2924194	275.1892395	994.1044312	68.35514832	235.8504028	935.4329834	446.5917664	221.0860748	1041.335083	461.4025269	284.7000732	1068.609741	72.23191071	257.4180908	1082.757935	319.3268738	307.874054	1077.234009	314.0146484	276.8497009	1081.418335	256.1751099	242.3355713	1060.155029	783.9755859	243.2572327	1064.864502	635.15271	191.969574	1066.682861	637.1171265	219.7762909	1070.171753	697.1305542	239.5408936	698.9743652	779.0410767	237.4076996	695.4391479	646.6696167	186.7555237	693.1276245	637.6049805	201.3100433	689.4472656	701.3189697	130.4869537	775.208313	1593.093628	241.2138214	786.2341309	1575.992798	252.7829132	909.7073364	1571.473877	262.8698425	857.6692505	1391.47937	286.224884	877.7180176	1007.772095	140.3188171	872.6896362	1328.738647	244.1360931	724.703186	1380.979858	236.3215027	986.6613159	1397.152222	163.8379364	222.5363159	1357.675049	204.4700165	222.0933685	1353.165039	150.3478088	130.66745	1337.027222	240.8321228	1500.537598	1389.717163	287.7390442	1499.624756	1383.632568	235.1252441	1590.695801	1391.990601	293.1545105	1271.210571	1330.372314	254.9403839	1271.766479	1296.736572	220.0414276	453.8565674	1299.978271	179.1847839	466.7259827	1277.579346	236.2846375	505.7790833	1353.778687	200.4038849	536.3781738	1371.392334	237.6293182	584.9187012	1362.387939	265.9603577	1205.634155	1382.782104	256.6564026	1143.917114	1384.421753	215.7183228	1212.205811	1385.724121	226.6883545	775.3024292	455.4909668	228.4682312	988.3840332	453.9971313	277.7701721	739.8024902	71.04964447	279.9446411	1031.357056	70.29353333
